<svg xmlns="http://www.w3.org/2000/svg" version="1.1" xmlns:xlink="http://www.w3.org/1999/xlink" xmlns:svgjs="http://svgjs.dev/svgjs" width="1500" height="935" viewBox="0 0 1500 935"><g transform="matrix(1,0,0,1,-0.9090909090909918,0.3785425101214628)"><svg viewBox="0 0 396 247" data-background-color="#ffffff" preserveAspectRatio="xMidYMid meet" height="935" width="1500" xmlns="http://www.w3.org/2000/svg" xmlns:xlink="http://www.w3.org/1999/xlink"><g id="tight-bounds" transform="matrix(1,0,0,1,0.2400000000000091,-0.09999999999999432)"><svg viewBox="0 0 395.52 247.2" height="247.2" width="395.52"><g><svg></svg></g><g><svg viewBox="0 0 395.52 247.2" height="247.2" width="395.52"><g transform="matrix(1,0,0,1,75.54432,100.43115071090047)"><svg viewBox="0 0 244.43135999999998 46.33769857819905" height="46.33769857819905" width="244.43135999999998"><g><svg viewBox="0 0 244.43135999999998 46.33769857819905" height="46.33769857819905" width="244.43135999999998"><g><svg viewBox="0 0 244.43135999999998 46.33769857819905" height="46.33769857819905" width="244.43135999999998"><g><svg viewBox="0 0 244.43135999999998 46.33769857819905" height="46.33769857819905" width="244.43135999999998"><g id="textblocktransform"><svg viewBox="0 0 244.43135999999998 46.33769857819905" height="46.33769857819905" width="244.43135999999998" id="textblock"><g><svg viewBox="0 0 244.43135999999998 46.33769857819905" height="46.33769857819905" width="244.43135999999998"><g transform="matrix(1,0,0,1,0,0)"><svg width="244.43135999999998" viewBox="5.35 -42.3 284.83 53.99999999999999" height="46.33769857819905" data-palette-color="#70cfc8"><path d="M10.2-4.2L28.55-4.2 28.55 0 5.35 0 5.35-37.9 28.3-37.9 28.3-33.7 10.2-33.7 10.2-21.15 25.8-21.15 25.8-16.95 10.2-16.95 10.2-4.2ZM54.05-27.65L58.95-27.65 48.5 0.45 43.1 0.45 32.55-27.65 37.45-27.65 45.8-4.75 54.05-27.65ZM67.65-13.45Q67.75-8.85 69.95-6.1 72.15-3.35 76.95-3.35L76.95-3.35Q80.6-3.35 84.95-5.4L84.95-5.4 86.4-1.5Q81.85 0.85 76.55 0.85L76.55 0.85Q72.15 0.85 69.05-1 65.95-2.85 64.35-6.15 62.75-9.45 62.75-13.85L62.75-13.85Q62.75-18.5 64.42-21.78 66.1-25.05 68.95-26.75 71.8-28.45 75.35-28.45L75.35-28.45Q80.8-28.45 83.9-25.05 87-21.65 87-15.3L87-15.3 87-13.45 67.65-13.45ZM75.35-24.25Q69.15-24.25 67.95-17.4L67.95-17.4 82.05-17.4Q81.8-20.9 80.15-22.58 78.5-24.25 75.35-24.25L75.35-24.25ZM106.84-28.25Q111.94-28.25 114.42-25.55 116.89-22.85 116.89-16.65L116.89-16.65 116.89 0 112.19 0 112.19-16.65Q112.19-20.55 110.87-22.2 109.54-23.85 106.19-23.85L106.19-23.85Q102.29-23.85 98.39-20.45L98.39-20.45 98.39 0 93.69 0 93.69-27.65 98.39-27.65 98.39-24.7Q102.49-28.25 106.84-28.25L106.84-28.25ZM137.69-22.95L131.29-22.95 131.29-7.15Q131.29-5.15 131.92-4.42 132.54-3.7 134.24-3.7L134.24-3.7Q135.74-3.7 137.44-4.1L137.44-4.1 137.44 0.15Q135.19 0.65 133.44 0.65L133.44 0.65Q129.64 0.65 128.12-0.9 126.59-2.45 126.59-6.1L126.59-6.1 126.59-22.95 122.99-22.95 122.99-27.3 126.59-27.3 126.59-36.8 131.29-36.8 131.29-27.3 137.69-27.3 137.69-22.95ZM166.89 0.85Q159.64 0.85 153.94-1.85L153.94-1.85 153.94-6.45Q159.69-3.4 166.89-3.4L166.89-3.4Q171.04-3.4 172.96-5.15 174.89-6.9 174.89-9.75L174.89-9.75Q174.89-12.45 173.11-13.8 171.34-15.15 167.89-16.15L167.89-16.15 164.49-17.1Q161.59-17.95 159.54-19.05 157.49-20.15 156.11-22.23 154.74-24.3 154.74-27.65L154.74-27.65Q154.74-33 157.86-35.8 160.99-38.6 166.74-38.6L166.74-38.6Q170.09-38.6 172.64-37.98 175.19-37.35 177.94-36.1L177.94-36.1 177.94-31.6Q172.84-34.35 166.74-34.35L166.74-34.35Q163.04-34.35 161.34-32.63 159.64-30.9 159.64-27.9L159.64-27.9Q159.69-25.15 161.31-23.85 162.94-22.55 166.39-21.55L166.39-21.55 169.84-20.6Q172.89-19.75 175.01-18.63 177.14-17.5 178.46-15.38 179.79-13.25 179.79-9.85L179.79-9.85Q179.74-4.9 176.31-2.02 172.89 0.85 166.89 0.85L166.89 0.85ZM200.13-28.45Q205.73-28.45 209.06-24.7 212.38-20.95 212.38-13.8L212.38-13.8Q212.38-6.65 209.06-2.9 205.73 0.85 200.13 0.85L200.13 0.85Q196.08 0.85 192.13-2.5L192.13-2.5 192.13 11.7 187.43 11.7 187.43-27.65 192.13-27.65 192.13-25.05Q196.13-28.45 200.13-28.45L200.13-28.45ZM199.48-3.5Q203.43-3.5 205.48-6.13 207.53-8.75 207.53-13.8L207.53-13.8Q207.53-18.85 205.48-21.45 203.43-24.05 199.48-24.05L199.48-24.05Q195.73-24.05 192.13-20.95L192.13-20.95 192.13-6.6Q195.83-3.5 199.48-3.5L199.48-3.5ZM228.23-27.65Q232.63-27.65 234.93-26.18 237.23-24.7 237.98-22.23 238.73-19.75 238.73-16L238.73-16 238.73 0 234.03 0 234.03-2.75Q232.13-0.95 230.23-0.15 228.33 0.65 226.13 0.65L226.13 0.65Q223.53 0.65 221.43-0.48 219.33-1.6 218.11-3.73 216.88-5.85 216.88-8.75L216.88-8.75Q216.88-13.25 219.68-15.73 222.48-18.2 227.23-18.2L227.23-18.2Q230.98-18.2 233.98-16.55L233.98-16.55Q233.93-19 233.48-20.45 233.03-21.9 231.63-22.68 230.23-23.45 227.48-23.45L227.48-23.45 223.78-23.45 223.78-27.65 228.23-27.65ZM226.78-3.4Q228.48-3.4 230.36-4.2 232.23-5 234.03-6.6L234.03-6.6 234.03-12.9Q231.23-14.3 227.93-14.3L227.93-14.3Q225.28-14.3 223.48-13.03 221.68-11.75 221.68-8.75L221.68-8.75Q221.68-5.95 223.21-4.67 224.73-3.4 226.78-3.4L226.78-3.4ZM259.53-28.25L260.68-28.25 260.68-23.85 259.53-23.85Q255.23-23.85 251.18-20.4L251.18-20.4 251.18 0 246.48 0 246.48-27.65 251.18-27.65 251.18-24.55Q255.28-28.25 259.53-28.25L259.53-28.25ZM284.48 0L274.38-12.75 271.38-9.7 271.38 0 266.68 0 266.68-42.3 271.38-42.3 271.38-15.65 282.68-27.3 288.58-27.3 277.58-16 290.18 0 284.48 0Z" opacity="1" transform="matrix(1,0,0,1,0,0)" fill="#70cfc8" class="wordmark-text-0" data-fill-palette-color="primary" id="text-0"></path></svg></g></svg></g></svg></g></svg></g></svg></g></svg></g></svg></g><path d="M188.41 94.431L188.41 33.244 7.699 33.244 7.699 213.956 188.41 213.956 188.41 152.769 184.231 152.769 184.231 209.777 11.877 209.777 11.877 37.423 184.231 37.423 184.231 94.431Z" fill="#83ced2" stroke="transparent" data-fill-palette-color="tertiary"></path></svg></g><defs></defs></svg><rect width="395.52" height="247.2" fill="none" stroke="none" visibility="hidden"></rect></g></svg></g></svg>