<?xml version="1.0" encoding="UTF-8" standalone="no"?>
<!-- Generator: Adobe Illustrator 17.0.0, SVG Export Plug-In . SVG Version: 6.00 Build 0)  -->

<svg
   version="1.1"
   id="Capa_1"
   x="0px"
   y="0px"
   width="10.175px"
   height="14.751px"
   viewBox="0 0 10.175 14.751"
   enable-background="new 0 0 10.175 14.751"
   xml:space="preserve"
   sodipodi:docname="gbp.svg"
   inkscape:version="1.3.1 (91b66b0783, 2023-11-16)"
   xmlns:inkscape="http://www.inkscape.org/namespaces/inkscape"
   xmlns:sodipodi="http://sodipodi.sourceforge.net/DTD/sodipodi-0.dtd"
   xmlns="http://www.w3.org/2000/svg"
   xmlns:svg="http://www.w3.org/2000/svg"><defs
   id="defs1" /><sodipodi:namedview
   id="namedview1"
   pagecolor="#ffffff"
   bordercolor="#000000"
   borderopacity="0.25"
   inkscape:showpageshadow="2"
   inkscape:pageopacity="0.0"
   inkscape:pagecheckerboard="0"
   inkscape:deskcolor="#d1d1d1"
   inkscape:zoom="80.062366"
   inkscape:cx="5.0897821"
   inkscape:cy="7.3755002"
   inkscape:window-width="2560"
   inkscape:window-height="1377"
   inkscape:window-x="-8"
   inkscape:window-y="-8"
   inkscape:window-maximized="1"
   inkscape:current-layer="Capa_1" />
<path
   d="m 8.8063333,10.745282 v 2.021789 H 1.3686667 V 11.445776 C 2.2341233,11.087958 3.178475,10.157951 3.178475,9.0478394 c 0,-0.2287165 0,-0.4399006 -0.032674,-0.6526786 H 1.5463802 V 6.6993123 H 2.8533311 C 2.7704513,6.2904916 2.722636,5.8330588 2.722636,5.3764229 c 0,-2.0377278 1.4838675,-3.392494 3.686558,-3.392494 0.880598,0 1.5484181,0.1952457 1.9086265,0.3920853 L 7.9249383,4.2519669 C 7.5982006,4.0726597 7.1415647,3.9586999 6.5390922,3.9586999 c -1.1587236,0 -1.5173382,0.7339645 -1.5173382,1.5324797 0,0.425556 0.066941,0.8009059 0.1641658,1.2089296 H 7.4204871 V 8.3959577 H 5.3979008 C 5.4146362,8.788043 5.366024,9.1785344 5.2504704,9.5538844 5.1046338,9.962705 4.8432436,10.369932 4.4519553,10.711811 v 0.03347 z"
   id="path1"
   style="fill:#757575;fill-opacity:1;stroke-width:0.796921" />
</svg>
